<mxfile host="app.diagrams.net" modified="2025-04-10T15:00:00.000Z" agent="5.0 (Windows NT 10.0; Win64; x64) AppleWebKit/537.36 (KHTML, like Gecko) Chrome/96.0.4664.110 Safari/537.36" etag="your-etag" version="@DRAWIO-VERSION@">
  <diagram id="connectivity-layer" name="Connectivity Layer">
    <mxGraphModel dx="1422" dy="794" grid="1" gridSize="10" guides="1" tooltips="1" connect="1" arrows="1" fold="1" page="1" pageScale="1" pageWidth="850" pageHeight="1100" background="#2C3E50" math="0" shadow="0">
      <root>
        <mxCell id="0" />
        <mxCell id="1" parent="0" />
        <mxCell id="100" value="&lt;font style=&quot;font-size: 18px;&quot; color=&quot;#FFFFFF&quot;&gt;&lt;b&gt;Connectivity Layer - Network Architecture&lt;/b&gt;&lt;/font&gt;" style="text;html=1;align=center;verticalAlign=middle;resizable=0;points=[];autosize=1;strokeColor=none;fillColor=none;" vertex="1" parent="1">
          <mxGeometry x="255" y="20" width="340" height="40" as="geometry" />
        </mxCell>
        <mxCell id="101" value="" style="rounded=0;whiteSpace=wrap;html=1;fillColor=#3498DB;strokeColor=#2980B9;fontColor=#FFFFFF;strokeWidth=2;" vertex="1" parent="1">
          <mxGeometry x="120" y="80" width="100" height="50" as="geometry" />
        </mxCell>
        <mxCell id="102" value="&lt;font style=&quot;font-size: 14px;&quot; color=&quot;#FFFFFF&quot;&gt;&lt;b&gt;Sensor&lt;/b&gt;&lt;/font&gt;" style="text;html=1;strokeColor=none;fillColor=none;align=center;verticalAlign=middle;whiteSpace=wrap;rounded=0;" vertex="1" parent="1">
          <mxGeometry x="140" y="90" width="60" height="30" as="geometry" />
        </mxCell>
        <mxCell id="103" value="" style="rounded=0;whiteSpace=wrap;html=1;fillColor=#3498DB;strokeColor=#2980B9;fontColor=#FFFFFF;strokeWidth=2;" vertex="1" parent="1">
          <mxGeometry x="250" y="80" width="100" height="50" as="geometry" />
        </mxCell>
        <mxCell id="104" value="&lt;font style=&quot;font-size: 14px;&quot; color=&quot;#FFFFFF&quot;&gt;&lt;b&gt;Sensor&lt;/b&gt;&lt;/font&gt;" style="text;html=1;strokeColor=none;fillColor=none;align=center;verticalAlign=middle;whiteSpace=wrap;rounded=0;" vertex="1" parent="1">
          <mxGeometry x="270" y="90" width="60" height="30" as="geometry" />
        </mxCell>
        <mxCell id="105" value="" style="rounded=0;whiteSpace=wrap;html=1;fillColor=#3498DB;strokeColor=#2980B9;fontColor=#FFFFFF;strokeWidth=2;" vertex="1" parent="1">
          <mxGeometry x="380" y="80" width="100" height="50" as="geometry" />
        </mxCell>
        <mxCell id="106" value="&lt;font style=&quot;font-size: 14px;&quot; color=&quot;#FFFFFF&quot;&gt;&lt;b&gt;Sensor&lt;/b&gt;&lt;/font&gt;" style="text;html=1;strokeColor=none;fillColor=none;align=center;verticalAlign=middle;whiteSpace=wrap;rounded=0;" vertex="1" parent="1">
          <mxGeometry x="400" y="90" width="60" height="30" as="geometry" />
        </mxCell>
        <mxCell id="107" value="" style="rounded=0;whiteSpace=wrap;html=1;fillColor=#3498DB;strokeColor=#2980B9;fontColor=#FFFFFF;strokeWidth=2;" vertex="1" parent="1">
          <mxGeometry x="510" y="80" width="100" height="50" as="geometry" />
        </mxCell>
        <mxCell id="108" value="&lt;font style=&quot;font-size: 14px;&quot; color=&quot;#FFFFFF&quot;&gt;&lt;b&gt;Sensor&lt;/b&gt;&lt;/font&gt;" style="text;html=1;strokeColor=none;fillColor=none;align=center;verticalAlign=middle;whiteSpace=wrap;rounded=0;" vertex="1" parent="1">
          <mxGeometry x="530" y="90" width="60" height="30" as="geometry" />
        </mxCell>
        <mxCell id="109" value="LoRaWAN" style="rounded=1;whiteSpace=wrap;html=1;fillColor=#16A085;strokeColor=#1ABC9C;fontColor=#FFFFFF;" vertex="1" parent="1">
          <mxGeometry x="130" y="140" width="80" height="20" as="geometry" />
        </mxCell>
        <mxCell id="110" value="LoRaWAN" style="rounded=1;whiteSpace=wrap;html=1;fillColor=#16A085;strokeColor=#1ABC9C;fontColor=#FFFFFF;" vertex="1" parent="1">
          <mxGeometry x="260" y="140" width="80" height="20" as="geometry" />
        </mxCell>
        <mxCell id="111" value="LoRaWAN" style="rounded=1;whiteSpace=wrap;html=1;fillColor=#16A085;strokeColor=#1ABC9C;fontColor=#FFFFFF;" vertex="1" parent="1">
          <mxGeometry x="390" y="140" width="80" height="20" as="geometry" />
        </mxCell>
        <mxCell id="112" value="LoRaWAN" style="rounded=1;whiteSpace=wrap;html=1;fillColor=#16A085;strokeColor=#1ABC9C;fontColor=#FFFFFF;" vertex="1" parent="1">
          <mxGeometry x="520" y="140" width="80" height="20" as="geometry" />
        </mxCell>
        <mxCell id="113" value="" style="endArrow=none;dashed=1;html=1;dashPattern=1 3;strokeWidth=2;rounded=0;fontColor=#FFFFFF;strokeColor=#FFFFFF;entryX=0.5;entryY=1;entryDx=0;entryDy=0;" edge="1" parent="1" source="115" target="109">
          <mxGeometry width="50" height="50" relative="1" as="geometry">
            <mxPoint x="170" y="230" as="sourcePoint" />
            <mxPoint x="430" y="270" as="targetPoint" />
          </mxGeometry>
        </mxCell>
        <mxCell id="114" value="" style="endArrow=none;dashed=1;html=1;dashPattern=1 3;strokeWidth=2;rounded=0;fontColor=#FFFFFF;strokeColor=#FFFFFF;entryX=0.5;entryY=1;entryDx=0;entryDy=0;" edge="1" parent="1" source="115" target="110">
          <mxGeometry width="50" height="50" relative="1" as="geometry">
            <mxPoint x="220.63" y="230" as="sourcePoint" />
            <mxPoint x="259.37" y="170" as="targetPoint" />
          </mxGeometry>
        </mxCell>
        <mxCell id="115" value="" style="rounded=0;whiteSpace=wrap;html=1;fillColor=#E74C3C;strokeColor=#C0392B;fontColor=#FFFFFF;strokeWidth=2;" vertex="1" parent="1">
          <mxGeometry x="170" y="230" width="120" height="50" as="geometry" />
        </mxCell>
        <mxCell id="116" value="&lt;font style=&quot;font-size: 14px;&quot; color=&quot;#FFFFFF&quot;&gt;&lt;b&gt;Gateway&lt;/b&gt;&lt;/font&gt;" style="text;html=1;strokeColor=none;fillColor=none;align=center;verticalAlign=middle;whiteSpace=wrap;rounded=0;" vertex="1" parent="1">
          <mxGeometry x="200" y="240" width="60" height="30" as="geometry" />
        </mxCell>
        <mxCell id="117" value="" style="endArrow=none;dashed=1;html=1;dashPattern=1 3;strokeWidth=2;rounded=0;fontColor=#FFFFFF;strokeColor=#FFFFFF;entryX=0.5;entryY=1;entryDx=0;entryDy=0;" edge="1" parent="1" source="119" target="111">
          <mxGeometry width="50" height="50" relative="1" as="geometry">
            <mxPoint x="430" y="230" as="sourcePoint" />
            <mxPoint x="430" y="170" as="targetPoint" />
          </mxGeometry>
        </mxCell>
        <mxCell id="118" value="" style="endArrow=none;dashed=1;html=1;dashPattern=1 3;strokeWidth=2;rounded=0;fontColor=#FFFFFF;strokeColor=#FFFFFF;entryX=0.5;entryY=1;entryDx=0;entryDy=0;" edge="1" parent="1" source="119" target="112">
          <mxGeometry width="50" height="50" relative="1" as="geometry">
            <mxPoint x="470" y="230" as="sourcePoint" />
            <mxPoint x="520" y="170" as="targetPoint" />
          </mxGeometry>
        </mxCell>
        <mxCell id="119" value="" style="rounded=0;whiteSpace=wrap;html=1;fillColor=#E74C3C;strokeColor=#C0392B;fontColor=#FFFFFF;strokeWidth=2;" vertex="1" parent="1">
          <mxGeometry x="440" y="230" width="120" height="50" as="geometry" />
        </mxCell>
        <mxCell id="120" value="&lt;font style=&quot;font-size: 14px;&quot; color=&quot;#FFFFFF&quot;&gt;&lt;b&gt;Gateway&lt;/b&gt;&lt;/font&gt;" style="text;html=1;strokeColor=none;fillColor=none;align=center;verticalAlign=middle;whiteSpace=wrap;rounded=0;" vertex="1" parent="1">
          <mxGeometry x="470" y="240" width="60" height="30" as="geometry" />
        </mxCell>
        <mxCell id="121" value="TCP/IP" style="rounded=1;whiteSpace=wrap;html=1;fillColor=#8E44AD;strokeColor=#9B59B6;fontColor=#FFFFFF;" vertex="1" parent="1">
          <mxGeometry x="190" y="290" width="80" height="20" as="geometry" />
        </mxCell>
        <mxCell id="122" value="TCP/IP" style="rounded=1;whiteSpace=wrap;html=1;fillColor=#8E44AD;strokeColor=#9B59B6;fontColor=#FFFFFF;" vertex="1" parent="1">
          <mxGeometry x="460" y="290" width="80" height="20" as="geometry" />
        </mxCell>
        <mxCell id="123" value="" style="endArrow=classic;html=1;rounded=0;fontColor=#FFFFFF;strokeColor=#FFFFFF;strokeWidth=2;exitX=0.5;exitY=1;exitDx=0;exitDy=0;" edge="1" parent="1" source="121" target="127">
          <mxGeometry width="50" height="50" relative="1" as="geometry">
            <mxPoint x="380" y="330" as="sourcePoint" />
            <mxPoint x="290" y="360" as="targetPoint" />
          </mxGeometry>
        </mxCell>
        <mxCell id="124" value="" style="endArrow=classic;html=1;rounded=0;fontColor=#FFFFFF;strokeColor=#FFFFFF;strokeWidth=2;exitX=0.5;exitY=1;exitDx=0;exitDy=0;" edge="1" parent="1" source="122" target="127">
          <mxGeometry width="50" height="50" relative="1" as="geometry">
            <mxPoint x="240" y="320" as="sourcePoint" />
            <mxPoint x="390" y="360" as="targetPoint" />
          </mxGeometry>
        </mxCell>
        <mxCell id="127" value="" style="rounded=0;whiteSpace=wrap;html=1;fillColor=#F39C12;strokeColor=#F1C40F;fontColor=#FFFFFF;strokeWidth=2;" vertex="1" parent="1">
          <mxGeometry x="305" y="360" width="120" height="50" as="geometry" />
        </mxCell>
        <mxCell id="128" value="&lt;font style=&quot;font-size: 14px;&quot; color=&quot;#FFFFFF&quot;&gt;&lt;b&gt;Network Server&lt;/b&gt;&lt;/font&gt;" style="text;html=1;strokeColor=none;fillColor=none;align=center;verticalAlign=middle;whiteSpace=wrap;rounded=0;" vertex="1" parent="1">
          <mxGeometry x="335" y="370" width="60" height="30" as="geometry" />
        </mxCell>
        <mxCell id="129" value="MQTT/HTTPS" style="rounded=1;whiteSpace=wrap;html=1;fillColor=#27AE60;strokeColor=#2ECC71;fontColor=#FFFFFF;" vertex="1" parent="1">
          <mxGeometry x="210" y="440" width="90" height="20" as="geometry" />
        </mxCell>
        <mxCell id="130" value="LTE-M/NB-IoT" style="rounded=1;whiteSpace=wrap;html=1;fillColor=#D35400;strokeColor=#E67E22;fontColor=#FFFFFF;" vertex="1" parent="1">
          <mxGeometry x="430" y="440" width="90" height="20" as="geometry" />
        </mxCell>
        <mxCell id="131" value="" style="endArrow=none;dashed=1;html=1;dashPattern=1 3;strokeWidth=2;rounded=0;fontColor=#FFFFFF;strokeColor=#FFFFFF;exitX=0.5;exitY=1;exitDx=0;exitDy=0;" edge="1" parent="1" source="127" target="133">
          <mxGeometry width="50" height="50" relative="1" as="geometry">
            <mxPoint x="380" y="440" as="sourcePoint" />
            <mxPoint x="230" y="490" as="targetPoint" />
          </mxGeometry>
        </mxCell>
        <mxCell id="132" value="" style="endArrow=none;dashed=1;html=1;dashPattern=1 3;strokeWidth=2;rounded=0;fontColor=#FFFFFF;strokeColor=#FFFFFF;exitX=0.5;exitY=1;exitDx=0;exitDy=0;" edge="1" parent="1" source="127" target="136">
          <mxGeometry width="50" height="50" relative="1" as="geometry">
            <mxPoint x="375" y="420" as="sourcePoint" />
            <mxPoint x="470" y="490" as="targetPoint" />
          </mxGeometry>
        </mxCell>
        <mxCell id="133" value="" style="rounded=0;whiteSpace=wrap;html=1;fillColor=#3498DB;strokeColor=#2980B9;fontColor=#FFFFFF;strokeWidth=2;" vertex="1" parent="1">
          <mxGeometry x="190" y="490" width="120" height="50" as="geometry" />
        </mxCell>
        <mxCell id="134" value="&lt;font style=&quot;font-size: 14px;&quot; color=&quot;#FFFFFF&quot;&gt;&lt;b&gt;Internet&lt;/b&gt;&lt;/font&gt;" style="text;html=1;strokeColor=none;fillColor=none;align=center;verticalAlign=middle;whiteSpace=wrap;rounded=0;" vertex="1" parent="1">
          <mxGeometry x="220" y="500" width="60" height="30" as="geometry" />
        </mxCell>
        <mxCell id="136" value="" style="rounded=0;whiteSpace=wrap;html=1;fillColor=#9B59B6;strokeColor=#8E44AD;fontColor=#FFFFFF;strokeWidth=2;" vertex="1" parent="1">
          <mxGeometry x="420" y="490" width="120" height="50" as="geometry" />
        </mxCell>
        <mxCell id="137" value="&lt;font style=&quot;font-size: 14px;&quot; color=&quot;#FFFFFF&quot;&gt;&lt;b&gt;Cellular&lt;br&gt;Backup&lt;/b&gt;&lt;/font&gt;" style="text;html=1;strokeColor=none;fillColor=none;align=center;verticalAlign=middle;whiteSpace=wrap;rounded=0;" vertex="1" parent="1">
          <mxGeometry x="450" y="500" width="60" height="30" as="geometry" />
        </mxCell>
        <mxCell id="138" value="" style="endArrow=classic;html=1;rounded=0;fontColor=#FFFFFF;strokeColor=#FFFFFF;strokeWidth=2;exitX=0.5;exitY=1;exitDx=0;exitDy=0;" edge="1" parent="1" source="133" target="141">
          <mxGeometry width="50" height="50" relative="1" as="geometry">
            <mxPoint x="380" y="520" as="sourcePoint" />
            <mxPoint x="330" y="580" as="targetPoint" />
          </mxGeometry>
        </mxCell>
        <mxCell id="139" value="" style="endArrow=classic;html=1;rounded=0;fontColor=#FFFFFF;strokeColor=#FFFFFF;strokeWidth=2;exitX=0.5;exitY=1;exitDx=0;exitDy=0;" edge="1" parent="1" source="136" target="141">
          <mxGeometry width="50" height="50" relative="1" as="geometry">
            <mxPoint x="270" y="550" as="sourcePoint" />
            <mxPoint x="390" y="580" as="targetPoint" />
          </mxGeometry>
        </mxCell>
        <mxCell id="141" value="" style="rounded=0;whiteSpace=wrap;html=1;fillColor=#1ABC9C;strokeColor=#16A085;fontColor=#FFFFFF;strokeWidth=2;" vertex="1" parent="1">
          <mxGeometry x="305" y="580" width="120" height="60" as="geometry" />
        </mxCell>
        <mxCell id="142" value="&lt;font style=&quot;font-size: 14px;&quot; color=&quot;#FFFFFF&quot;&gt;&lt;b&gt;Cloud&lt;br&gt;Platform&lt;/b&gt;&lt;/font&gt;" style="text;html=1;strokeColor=none;fillColor=none;align=center;verticalAlign=middle;whiteSpace=wrap;rounded=0;" vertex="1" parent="1">
          <mxGeometry x="335" y="595" width="60" height="30" as="geometry" />
        </mxCell>
      </root>
    </mxGraphModel>
  </diagram>
</mxfile>